<svg id="Camada_1" data-name="Camada 1" xmlns="http://www.w3.org/2000/svg" viewBox="0 0 1686.65 903.67"><defs><style>.cls-1{fill:#d296d2;}.cls-2{fill:#ffb450;}</style></defs><polygon class="cls-1" points="728.1 289.69 772.26 346.48 816.43 289.69 816.43 428.51 841.66 428.51 841.66 251.83 816.43 251.83 772.26 308.62 728.1 251.83 702.86 251.83 702.86 428.51 728.1 428.51 728.1 289.69"/><path class="cls-1" d="M917.4,302.31c-31.55,0-56.79,25.24-56.79,63.1s25.24,63.1,63.09,63.1c25.25,0,37.86-12.63,37.86-12.63V390.65S949,403.27,923.7,403.27c-17.16,0-34.57-10.61-37.35-31.55h87.84v-6.31C974.19,327.55,949,302.31,917.4,302.31Zm-30.29,50.48c3.53-16.91,14.9-25.24,30.29-25.24s26.75,8.33,30.29,25.24Z"/><path class="cls-1" d="M1005.75,390.65q0,37.85,37.86,37.86h25.24V403.27H1031V327.55h37.86V302.31H1031V251.83h-25.24v50.48H980.51v25.24h25.24Z"/><path class="cls-1" d="M1144.57,428.51c25.24,0,37.86-18.93,37.86-50.49v50.49h25.24V302.31h-25.24v50.48c0-31.55-12.62-50.48-37.86-50.48-31.54,0-56.79,25.24-56.79,63.1S1113,428.51,1144.57,428.51Zm6.31-101c18.93,0,31.55,12.62,31.55,37.86s-12.62,37.86-31.55,37.86S1113,390.65,1113,365.41,1132,327.55,1150.88,327.55Z"/><polygon class="cls-1" points="816.43 550.88 728.1 550.88 728.1 475.16 702.86 475.16 702.86 651.83 728.1 651.83 728.1 576.12 816.43 576.12 816.43 651.83 841.67 651.83 841.67 475.16 816.43 475.16 816.43 550.88"/><path class="cls-1" d="M917.39,525.64c-31.54,0-56.79,25.24-56.79,63.1s25.25,63.09,63.1,63.09c25.24,0,37.86-12.62,37.86-12.62V614S948.94,626.6,923.7,626.6c-17.16,0-34.58-10.61-37.35-31.56h87.83v-6.3C974.18,550.88,948.94,525.64,917.39,525.64Zm-30.28,50.48c3.53-16.91,14.89-25.24,30.28-25.24s26.75,8.33,30.29,25.24Z"/><path class="cls-1" d="M1081.45,576.12c0-31.56-12.62-50.48-37.85-50.48-31.55,0-56.79,25.24-56.79,63.1s25.24,63.09,56.79,63.09c25.23,0,37.85-18.93,37.85-50.48v50.48h25.24V525.64h-25.24ZM1049.9,626.6c-18.92,0-37.85-12.63-37.85-37.86s18.93-37.86,37.85-37.86,31.55,12.61,31.55,37.86S1068.83,626.6,1049.9,626.6Z"/><polygon class="cls-1" points="1182.42 475.16 1131.94 475.16 1131.94 500.4 1157.18 500.4 1157.18 626.6 1131.94 626.6 1131.94 651.83 1207.65 651.83 1207.65 626.6 1182.42 626.6 1182.42 475.16"/><path class="cls-1" d="M1258.13,475.16H1232.9v50.48h-25.24v25.24h25.24V614q0,37.86,37.86,37.86H1296V626.6h-37.86V550.88H1296V525.64h-37.86Z"/><path class="cls-1" d="M1390.65,525.64c-25.24,0-44.17,18.92-44.17,50.48v-101h-25.24V651.83h25.24V588.74c0-25.25,12.62-37.86,31.54-37.86s31.56,12.61,31.56,37.86v63.09h25.23V576.12C1434.81,544.56,1415.88,525.64,1390.65,525.64Z"/><path class="cls-1" d="M492.54,326a125.91,125.91,0,0,0-240.71,51.75v88.88h59.65V437h-30V377.76a96.29,96.29,0,0,1,179.38-48.67,126,126,0,0,0-97.9,122.75,199.91,199.91,0,0,0,200,200V622.2a169.8,169.8,0,0,1-144.74-80.5,199.69,199.69,0,0,0,85.49-163.94,126.22,126.22,0,0,0-1.81-21.31,96.43,96.43,0,0,1,83.29,95.39V510.5H555.53v29.62h59.25V451.84C614.78,383.64,560.28,328,492.54,326ZM404.65,515a168.63,168.63,0,0,1-12.08-63.12,96.3,96.3,0,0,1,79.23-94.75,96,96,0,0,1,2.25,20.67A171.41,171.41,0,0,1,404.65,515Z"/><circle class="cls-2" cx="296.28" cy="607.39" r="44.44" transform="translate(-378.26 648.68) rotate(-67.5)"/></svg>